<?xml version="1.0" encoding="utf-8"?>
<!-- Generator: Adobe Illustrator 16.0.0, SVG Export Plug-In . SVG Version: 6.00 Build 0)  -->
<!DOCTYPE svg PUBLIC "-//W3C//DTD SVG 1.1//EN" "http://www.w3.org/Graphics/SVG/1.1/DTD/svg11.dtd">
<svg version="1.1" id="Layer_1" xmlns="http://www.w3.org/2000/svg" xmlns:xlink="http://www.w3.org/1999/xlink" x="0px" y="0px"
	 width="800px" height="800px" viewBox="0 0 800 800" enable-background="new 0 0 800 800" xml:space="preserve">
<g>
	<g>
		<path fill="#FFFFFF" d="M421.286,81.167c-18.197-16.828-24.632-10.244-22.416-36.449c0.875-9.989,3.472-25.931,4.958-38.288
			c0.284-2.353-0.908-4.639-3-5.754c-2.092-1.116-4.654-0.833-6.452,0.714c-9.462,8.147-19.898,19.967-26.854,33.463
			c-27.713,55.078,24.202,75.109,28.886,82.511c3.23,2.87,2.501,15.833,2.136,20.167c-0.786,8.97-3.416,25.673-4.911,38.388
			c-0.276,2.35,0.916,4.626,3.005,5.741c2.087,1.111,4.646,0.833,6.44-0.708c9.479-8.126,19.969-19.987,26.938-33.514
			C442.166,123.28,441.072,99.31,421.286,81.167z"/>
	</g>
</g>
<g>
	<g>
		<path fill="#FFFFFF" d="M327.144,146.629c-14.805-13.691-20.158-8.428-18.347-29.833c0.656-7.488,2.478-18.997,3.717-28.622
			c0.308-2.391-0.911-4.72-3.05-5.831c-2.139-1.109-4.746-0.771-6.525,0.857c-7.681,7.031-14.97,16.155-19.798,25.522
			c-22.624,44.971,19.577,61.104,23.642,67.535c2.729,2.416,2.021,13.286,1.747,16.508c-0.583,6.646-2.444,18.697-3.695,28.708
			c-0.297,2.386,0.922,4.707,3.058,5.813c2.136,1.106,4.738,0.768,6.514-0.856c7.521-6.866,14.935-15.963,19.881-25.558
			C344.206,181.146,343.411,161.543,327.144,146.629z"/>
	</g>
</g>
<g>
	<g>
		<path fill="#FFFFFF" d="M508.488,132.299c-1.919-3.584-1.445-11.44-1.102-15.506c0.693-7.898,2.487-19.148,3.711-28.589
			c0.309-2.394-0.908-4.725-3.051-5.838c-2.141-1.111-4.751-0.77-6.529,0.859c-7.495,6.871-14.856,15.916-19.791,25.489
			c-22.628,44.983,19.58,61.11,23.646,67.538c2.729,2.416,2.019,13.3,1.747,16.508c-0.656,7.484-2.479,19.025-3.703,28.703
			c-0.303,2.388,0.917,4.711,3.053,5.819c2.138,1.108,4.741,0.769,6.518-0.855c7.541-6.884,14.958-15.994,19.89-25.565
			C555.978,154.938,512.191,139.78,508.488,132.299z"/>
	</g>
</g>
<g>
	<g>
		<path fill="#FFFFFF" d="M635.426,249.759H163.772c-11.673,0-21.138,9.464-21.138,21.138v68.908
			c0,11.675,9.463,21.139,21.138,21.139h471.653c11.674,0,21.138-9.464,21.138-21.138v-68.909
			C656.563,259.223,647.1,249.759,635.426,249.759z"/>
	</g>
</g>
<g>
	<g>
		<path fill="#FFFFFF" d="M196.81,413.683c0.834,0,5.021,8.685,5.689,9.771c2.053,3.335,4.191,6.619,6.411,9.846
			c4.43,6.438,9.185,12.651,14.238,18.61c10.095,11.903,21.394,22.783,33.666,32.429c24.824,19.506,53.616,33.866,84.166,41.849
			c19.141,5.002,38.936,7.547,58.719,7.547c17.698,0.002,35.348-2.055,52.538-6.065c19.498-4.55,38.409-11.613,56.133-21.038
			c8.521-4.531,16.76-9.594,24.643-15.161c25.594-18.063,47.451-41.318,63.877-67.995c1.979-3.216,3.881-6.481,5.701-9.789
			C602.592,413.683,196.824,413.683,196.81,413.683z"/>
	</g>
</g>
<g>
	<g>
		<path fill="#FFFFFF" d="M289.167,563.92c-10.885-4.604-21.403-9.855-31.544-15.715L135.868,761.998
			c-6.947,12.199-2.689,27.719,9.508,34.666c12.197,6.95,27.719,2.689,34.667-9.508l123.863-217.493
			C298.956,567.884,294.037,565.98,289.167,563.92z"/>
	</g>
</g>
<g>
	<g>
		<path fill="#FFFFFF" d="M664.133,761.998L542.226,547.942c-10.276,5.966-20.945,11.307-31.987,15.978
			c-4.71,1.992-9.46,3.84-14.244,5.566l123.963,217.667c6.944,12.193,22.458,16.459,34.668,9.508
			C666.821,789.717,671.078,774.197,664.133,761.998z"/>
	</g>
</g>
<g>
	<g>
		<path fill="#FFFFFF" d="M399.701,586.256c-8.431,0-16.806-0.388-25.12-1.111v188.715c0,13.686,10.519,25.464,24.189,26.107
			c14.597,0.688,26.646-10.943,26.646-25.387V585.092C416.908,585.853,408.336,586.256,399.701,586.256z"/>
	</g>
</g>
</svg>
