<?xml version="1.0" encoding="utf-8"?>
<!-- Generator: Adobe Illustrator 16.0.0, SVG Export Plug-In . SVG Version: 6.00 Build 0)  -->
<!DOCTYPE svg PUBLIC "-//W3C//DTD SVG 1.1//EN" "http://www.w3.org/Graphics/SVG/1.1/DTD/svg11.dtd">
<svg version="1.1" id="Layer_1" xmlns="http://www.w3.org/2000/svg" xmlns:xlink="http://www.w3.org/1999/xlink" x="0px" y="0px"
	 width="800px" height="800px" viewBox="0 0 800 800" enable-background="new 0 0 800 800" xml:space="preserve">
<path fill-rule="evenodd" clip-rule="evenodd" fill="#FFFFFF" d="M525.226,202.265c0.879,0.722,1.84,1.354,2.622,2.179
	c12.97,13.656,25.957,27.293,38.799,41.083c1.121,1.204,1.73,3.434,1.762,5.203c0.166,9.782,0.08,19.569,0.08,29.354
	c0,68.954,0.038,167.909-0.089,236.862c-0.008,4.465,0.828,5.983,5.409,5.948c30.896-0.238,61.795-0.123,92.693-0.128
	c5.928-0.001,5.88-0.016,5.878-6.403c-0.021-76.751-0.031-183.503-0.027-260.255c0.001-7.248,0.058-7.229,7.053-7.213
	c10.828,0.026,21.658,0.127,32.485-0.024c3.688-0.052,5.005,1.155,4.999,5.284c-0.102,77.821-0.041,155.643-0.135,233.465
	c-0.005,4.029-0.03,53.509,0.013,56.892c0.152,12.227,0.078,24.461-0.108,36.689c-0.052,3.403,0.037,53.047,0.046,56.001
	c0.036,12.688,0.064,25.376-0.063,38.063c-0.034,3.555,0.229,54.083,0.158,55.398c-0.504,9.3-3.835,16.684-11.682,21.483
	c-13.771,8.425-31.046-1.981-32.343-16.978c-0.723-8.364-0.842-8.348-8.773-8.349c-30.32,0-60.642,0.063-90.961-0.092
	c-3.658-0.019-4.792,1.145-4.601,4.921c0.613,12.103-8.855,22.507-20.359,23.51c-12.104,1.056-23.225-8.719-23.861-22.788
	c-0.223-4.908-0.104-53.362-0.135-56.544c-0.122-12.995-0.137-25.992-0.011-38.986c0.035-3.646-0.021-52.319-0.03-54.934
	c-0.049-12.689-0.135-25.382,0.052-38.068c0.06-4.084-0.224-52.863-0.214-53.782c0.161-14.825,0.046-29.651-0.025-44.478
	c-0.002-0.261-0.25-0.521-0.84-1.675c-4.352,3.155-8.734,6.129-12.908,9.402c-10.212,8.005-17.787,18.585-25.234,29.293
	c-15.954,22.942-31.996,45.816-47.955,68.755c-18.937,27.219-37.742,54.54-56.757,81.697c-15.768,22.52-31.231,45.314-47.823,67.139
	c-12.002,15.788-27.409,27.972-44.764,36.582c-11.739,5.823-24.019,11.02-36.573,14.235c-11.769,3.014-24.197,3.312-36.372,4.3
	c-6.89,0.561-13.854,0.162-20.784,0.092c-14.429-0.145-26.111-11.328-26.343-27.493c-0.226-15.71,12.386-28.649,26.351-27.835
	c7.341,0.428,14.724,0.157,22.086,0.063c34.239-0.439,62.315-14.628,83.114-43.439c19.914-27.586,39.041-55.81,58.515-83.753
	c23.223-33.323,46.419-66.666,69.681-99.959c9.584-13.715,18.732-27.835,29.101-40.859c16.987-21.342,38.075-36.95,63.041-46.37
	c3.405-1.285,4.731-3.393,4.723-7.442c-0.124-56.57-0.071-113.139-0.063-169.709c0-1.934,0-3.868,0-5.801
	C524.445,202.622,524.835,202.444,525.226,202.265z"/>
<path fill-rule="evenodd" clip-rule="evenodd" fill="#FFFFFF" d="M510.208,181.899c-8.24,8.642-16.309,17.106-24.381,25.566
	c-0.614,0.644-1.277,1.234-1.89,1.88c-13.31,14.036-7.551,11.208-26.581,11.447c-14.146,0.178-28.297,0.067-42.443-0.11
	c-3.689-0.046-5.063,1.172-5.048,5.26c0.146,35.925,0.074,71.852,0.219,107.777c0.015,3.698-0.804,5.104-4.52,5.05
	c-12.123-0.176-24.253-0.129-36.375,0.121c-3.89,0.08-3.686-2.322-3.679-5.019c0.047-20.484,0.1-40.969,0.12-61.454
	c0.015-15.594-0.133-31.189,0.052-46.781c0.047-3.981-1.317-4.914-4.802-4.884c-17.179,0.148-34.359,0.049-51.539,0.078
	c-7.798,0.013-15.259-4.282-16.188-13.626c-0.533-5.369,0.834-9.898,4.436-13.691c29.174-30.728,58.355-61.446,87.521-92.183
	c13.071-13.774,26.007-27.695,39.206-41.332c8.93-9.227,19.379-15.681,32.049-17.191c5.841-0.696,11.718-1.472,17.581-1.491
	c42.879-0.142,85.759-0.306,128.635-0.006c15.7,0.109,30.021,5.345,41.472,17.262c19.302,20.088,38.398,40.397,57.618,60.575
	c23.048,24.197,46.153,48.331,69.166,72.566c1.899,2.001,3.364,4.5,4.869,6.881c5.512,8.719-2.183,22.333-14.191,22.328
	c-53.706-0.022-107.411-0.025-161.116-0.179c-1.938-0.005-4.37-0.998-5.734-2.428c-35.665-37.381-71.218-74.881-106.794-112.359
	c-6.329-6.667-12.623-13.372-19.02-19.965c-5.32-5.484-12.824-6.953-19.521-3.51c-6.682,3.436-10.131,9.442-10.064,17.272
	c0.043,5.021,2.154,9.39,5.568,12.972c20.664,21.682,41.327,43.365,61.975,65.064C507.905,178.947,508.856,180.259,510.208,181.899z
	"/>
<path fill-rule="evenodd" clip-rule="evenodd" fill="#FFFFFF" d="M455.617,377.99c-7.854,8.016-15.781,15.127-22.581,23.292
	c-8.732,10.486-16.783,21.639-24.723,32.827c-12.092,17.043-23.81,34.383-35.735,51.56c-12.006,17.294-24.059,34.552-36.113,51.81
	c-16.072,23.012-32.137,46.028-48.26,69c-7.715,10.99-14.897,22.507-23.494,32.674c-12.392,14.655-28.72,21.398-47.237,21.912
	c-8.8,0.244-17.612,0.041-26.418,0.051c-24.928,0.03-48.221,18.417-56.266,42.113c-5.468,16.105-5.501,32.155-0.158,48.258
	c0.892,2.688,0.349,3.944-2.646,3.93c-19.777-0.096-39.603,0.822-59.319-0.35c-17.804-1.06-33.22-11.044-39.87-31.743
	c-7.674-23.884,6.293-48.168,27.135-55.627c4.424-1.584,9.313-1.983,14.026-2.315c5.461-0.385,10.969-0.211,16.452-0.072
	c20.652,0.518,39.249-6.158,56.547-17.696c13.321-8.887,23.116-21.362,32.281-34.59c16.512-23.829,33.194-47.526,49.739-71.329
	c13.719-19.74,27.302-39.587,41.021-59.328c11.929-17.163,23.965-34.244,35.952-51.362c6.509-9.294,12.621-18.938,19.617-27.802
	c10.084-12.774,23.027-21.016,38.75-23.477c7.362-1.152,14.851-1.827,22.292-1.913c21.219-0.246,42.443-0.083,63.665-0.061
	C451.967,377.752,453.66,377.898,455.617,377.99z"/>
</svg>
